<svg width="20" height="20" viewBox="0 0 20 20" fill="none" xmlns="http://www.w3.org/2000/svg">
<path d="M15.0259 13.8475L18.595 17.4158L17.4159 18.595L13.8475 15.0258C12.5198 16.0901 10.8684 16.669 9.16669 16.6666C5.02669 16.6666 1.66669 13.3066 1.66669 9.16663C1.66669 5.02663 5.02669 1.66663 9.16669 1.66663C13.3067 1.66663 16.6667 5.02663 16.6667 9.16663C16.6691 10.8683 16.0902 12.5197 15.0259 13.8475ZM13.3542 13.2291C14.4118 12.1415 15.0024 10.6837 15 9.16663C15 5.94329 12.3892 3.33329 9.16669 3.33329C5.94335 3.33329 3.33335 5.94329 3.33335 9.16663C3.33335 12.3891 5.94335 15 9.16669 15C10.6837 15.0023 12.1416 14.4117 13.2292 13.3541L13.3542 13.2291ZM10.1484 5.97996C9.90263 6.09096 9.6875 6.25992 9.52143 6.47234C9.35536 6.68476 9.24331 6.9343 9.19489 7.19955C9.14647 7.4648 9.16313 7.73784 9.24343 7.99524C9.32374 8.25263 9.46529 8.4867 9.65595 8.67736C9.84661 8.86802 10.0807 9.00958 10.3381 9.08988C10.5955 9.17019 10.8685 9.18685 11.1338 9.13842C11.399 9.09 11.6486 8.97795 11.861 8.81188C12.0734 8.64581 12.2424 8.43069 12.3534 8.18496C12.5724 8.89631 12.547 9.6605 12.2813 10.3558C12.0155 11.051 11.5248 11.6373 10.8872 12.0213C10.2495 12.4053 9.50175 12.5648 8.76295 12.4744C8.02416 12.3841 7.33685 12.0491 6.81055 11.5228C6.28425 10.9965 5.94924 10.3092 5.85889 9.57036C5.76854 8.83156 5.92806 8.08378 6.31202 7.44616C6.69599 6.80855 7.28231 6.31778 7.97756 6.05206C8.67282 5.78634 9.437 5.76096 10.1484 5.97996Z" fill="#3280F6"/>
</svg>
